<?xml version="1.0" encoding="UTF-8"?>
<svg width="81px" height="74px" viewBox="0 0 81 74" version="1.1" xmlns="http://www.w3.org/2000/svg" xmlns:xlink="http://www.w3.org/1999/xlink">
    <title>编组 5</title>
    <defs>
        <linearGradient x1="77.1152847%" y1="25.2581614%" x2="20.1272353%" y2="89.9170637%" id="linearGradient-1">
            <stop stop-color="#FF8500" offset="0%"></stop>
            <stop stop-color="#FFC829" offset="100%"></stop>
        </linearGradient>
    </defs>
    <g id="缴费通" stroke="none" stroke-width="1" fill="none" fill-rule="evenodd">
        <g id="首页" transform="translate(-563.000000, -1190.000000)">
            <g id="住房维修" transform="translate(62.000000, 1143.000000)">
                <g id="编组-5" transform="translate(501.000000, 47.000000)">
                    <g id="编组-4" transform="translate(1.000000, 1.000000)">
                        <g id="维修" transform="translate(44.988235, 38.211765)" fill="#FCD700" fill-rule="nonzero">
                            <path d="M34.1083001,9.12314607 C33.970261,8.0188289 32.5898665,7.53569378 31.7616286,8.36393165 L26.792211,13.3333492 C26.2400525,13.8855078 25.4118194,13.8855078 24.8596608,13.3333492 L20.925537,9.39922536 C20.3733784,8.84706678 20.3733784,8.01883375 20.925537,7.46667517 L25.8949546,2.49725762 C26.7231924,1.66901975 26.2400529,0.28862814 25.1357401,0.150586068 C22.0988728,-0.2635319 18.8549593,0.771763261 16.5082683,3.11843482 C13.5404196,6.08628356 12.7812052,10.4345433 14.1615968,14.0925491 C14.368656,14.5756871 14.2306164,15.1968662 13.8164984,15.5419641 L0.426684286,28.9317782 C-0.125474298,29.4839368 -0.125474298,30.3121698 0.426684286,30.8643284 L3.32550957,33.7631537 C3.87766815,34.3153123 4.70590118,34.3153123 5.25805976,33.7631537 L18.7168828,20.3043307 C19.1310007,19.8902127 19.6831579,19.8211927 20.1662978,19.9592323 C23.8243424,21.3396239 28.1725925,20.5804095 31.1404121,17.6125608 C33.5561022,15.3349127 34.5223773,12.1599838 34.1082608,9.12315529 L34.1083001,9.12314607 Z" id="形状"></path>
                        </g>
                        <g id="房子" fill="url(#linearGradient-1)" fill-opacity="0.8" fill-rule="nonzero">
                            <path d="M37.697674,0.720141071 C37.697674,0.720141071 36.7837373,-0.122934332 35.7189322,0.185434669 L1.23550061,18.1073495 C0.279954651,18.4113202 -0.228641267,19.3735683 0.100322901,20.2576246 L1.2927482,23.4611855 C1.6213633,24.3426587 2.66417692,24.8134851 3.61993232,24.5093748 L10.556315,20.8842762 L10.556315,56.8317101 C10.556315,60.7606397 13.7741877,63.946398 17.7453549,63.946398 L53.6922302,63.946398 C57.6629087,63.946398 60.8823872,60.7607794 60.8823872,56.8317101 L60.8823872,20.8848348 L67.8170245,24.5092352 C68.773129,24.8133455 69.815803,24.342519 70.1449068,23.4613251 L71.3367736,20.257485 C71.6661566,19.3736382 71.1577701,18.4113202 70.2022242,18.1073495 L37.697674,0.720141071 Z M39.7132079,58.6208367 L31.7250056,58.6208367 L31.7250056,45.3067241 C31.7250056,44.3240205 32.1436111,42.6024041 35.7189322,42.6024041 C39.0708481,42.6024041 39.7132079,44.3240205 39.7132079,45.3067241 L39.7132079,58.6208367 Z" id="形状"></path>
                        </g>
                        <path d="M29.6848529,44.3646231 C30.1357469,43.3480899 30.5353888,42.6294521 30.8837783,42.2087096 C31.2321679,41.7879671 31.9619379,41.3771932 33.0730881,40.9763878" id="直线-5" stroke="#FFD696" stroke-width="1.12941176" stroke-linecap="round"></path>
                    </g>
                </g>
            </g>
        </g>
    </g>
</svg>