<?xml version="1.0" encoding="UTF-8"?>
<svg width="69px" height="80px" viewBox="0 0 69 80" version="1.1" xmlns="http://www.w3.org/2000/svg" xmlns:xlink="http://www.w3.org/1999/xlink">
    <title>编组 6</title>
    <defs>
        <linearGradient x1="94.2080642%" y1="0%" x2="14.846458%" y2="75.5626483%" id="linearGradient-1">
            <stop stop-color="#FFFFFF" stop-opacity="0.7" offset="0%"></stop>
            <stop stop-color="#FF003D" stop-opacity="0.7" offset="100%"></stop>
        </linearGradient>
        <linearGradient x1="50%" y1="0%" x2="50%" y2="100%" id="linearGradient-2">
            <stop stop-color="#FFFFFF" offset="0%"></stop>
            <stop stop-color="#FFEDED" offset="100%"></stop>
        </linearGradient>
    </defs>
    <g id="缴费通" stroke="none" stroke-width="1" fill="none" fill-rule="evenodd">
        <g id="首页" transform="translate(-577.000000, -621.000000)">
            <g id="一般缴费" transform="translate(57.000000, 568.000000)">
                <g id="编组-6" transform="translate(520.000000, 53.000000)">
                    <path d="M40.4268423,80 C59.4756141,71.862051 69,65.3256492 69,60.3907947 C69,52.0875547 57.8084029,63.8603509 43.8769039,64.1624533 C41.3016969,64.2182963 43.8769039,62.5 41.9967216,57.2539203 C40.5895967,53.3277641 26.2291205,45 19.5141714,45 C12.2099731,45 5.70524926,47.4626273 0,52.387882 C0,56.9917351 0,61.644119 0,66.3450337 C0,72.2849888 13.4756141,76.8366443 40.4268423,80 Z" id="椭圆形" fill-opacity="0.748961976" fill="#FFE1E1"></path>
                    <g id="编组" transform="translate(3.000000, 0.000000)">
                        <path d="M47.3365239,0 C48.6401166,0 49.8619334,0.635232456 50.6107506,1.702297 C51.879737,3.51060252 51.4425324,6.00524045 49.6342269,7.27422677 L49.6342269,7.27422677 L42.9718694,11.9489991 C54.6960664,16.0988525 63,26.422039 63,38.5 C63,54.2401154 48.8969696,67 31.5,67 C14.1030304,67 0,54.2401154 0,38.5 C0,26.422039 8.30393357,16.0988525 20.0281306,11.9489991 L13.3657731,7.27422677 C12.2987086,6.52540954 11.6634761,5.30359272 11.6634761,4 C11.6634761,1.790861 13.4543371,0 15.6634761,0 L15.6634761,0 Z" id="形状结合" fill="url(#linearGradient-1)"></path>
                        <g id="闪烁" transform="translate(43.000000, 21.000000)" fill="#FFFFFF" fill-rule="nonzero">
                            <path d="M4.54502873,4.79078292 C4.5371381,4.78289229 4.50953646,4.7454313 4.46222394,4.67839998 C4.41491143,4.61136865 4.36365355,4.53645059 4.30845033,4.45364581 C4.2532471,4.37084102 4.19804399,4.29198195 4.14284076,4.21706741 C4.08763753,4.14215322 4.04426252,4.08498171 4.01271561,4.04555158 C3.95752023,3.9666843 3.94569213,3.91148072 3.97723119,3.87994201 C4.00877025,3.84840295 4.04820002,3.85628968 4.09552039,3.9036022 C4.11918444,3.92725852 4.16059082,3.96274293 4.21973929,4.01005545 C4.27888775,4.05736796 4.34197419,4.10468446 4.40899732,4.15200483 C4.47602079,4.1993252 4.53910723,4.2466417 4.59825535,4.29395422 C4.65740382,4.34126673 4.70275157,4.37675513 4.73429848,4.40041918 C4.85257947,4.50293493 4.93538074,4.53053613 4.98270111,4.48322397 C5.00636516,4.45956765 5.03791207,4.43393871 5.07734185,4.40633716 C5.11677162,4.3787356 5.16014276,4.35704804 5.20745528,4.34127458 C5.28631471,4.30184481 5.33363121,4.21115295 5.34940466,4.06920005 C5.34940466,4.05343444 5.36715074,3.95091905 5.40264301,3.76165281 C5.43813527,3.57238658 5.47559231,3.34566014 5.51501423,3.08147234 C5.55443615,2.81728453 5.60175265,2.53141701 5.65696361,2.22386978 C5.71217458,1.91632254 5.75949108,1.62453705 5.798913,1.34851329 C5.83833492,1.07248953 5.87579594,0.833934174 5.91129594,0.632848393 C5.94679594,0.431762612 5.96847964,0.307558952 5.9763468,0.260238584 C5.99212025,0.118285685 6.0236633,0.0433676286 6.07097581,0.0354844163 C6.11828833,0.0276015907 6.15377673,0.102523596 6.17744078,0.260250303 C6.18533141,0.31544568 6.20307757,0.441618092 6.23067913,0.638766368 C6.25828068,0.835914645 6.2937651,1.07249773 6.33713237,1.34851329 C6.38049965,1.62452884 6.42584728,1.91434207 6.4731755,2.2179518 C6.52050372,2.52156153 6.56190213,2.8054603 6.59737096,3.0696481 C6.63283979,3.33383591 6.6643867,3.55464437 6.69201169,3.73207466 C6.71963669,3.90950494 6.73737889,4.01399647 6.74523832,4.04555158 C6.76101177,4.0928641 6.77283987,4.14214935 6.78072273,4.19340722 C6.78860556,4.2446651 6.81226578,4.27818076 6.85170329,4.29395422 C6.93056271,4.32550113 7.0015394,4.3649309 7.06463322,4.41224342 C7.15925837,4.45956378 7.23417209,4.45956378 7.28937567,4.41224342 C7.30514913,4.40436059 7.34655152,4.37479025 7.41358285,4.32353237 C7.48061417,4.2722745 7.55553223,4.21509865 7.63833701,4.15200483 C7.7211418,4.08891101 7.80000087,4.02976992 7.87491541,3.97458275 C7.9498296,3.91939522 8.00306009,3.87996159 8.03460701,3.85628183 C8.09770083,3.80896146 8.14107584,3.78924664 8.16473216,3.79713723 C8.18838847,3.80502786 8.18838847,3.82474277 8.16473216,3.85628183 C8.15684153,3.87993815 8.1233259,3.92922727 8.06418517,4.00414919 C8.00504443,4.07907111 7.94195846,4.15990328 7.87492713,4.24664557 C7.8078958,4.33338785 7.74677425,4.41618912 7.69156364,4.4950482 L7.58509867,4.66065777 C7.51412984,4.75529065 7.50230174,4.82626733 7.54961425,4.8735877 C7.57327057,4.89724402 7.59495802,4.92484171 7.61467683,4.95638077 C7.63439564,4.98791983 7.65608309,5.02735347 7.67973941,5.07468169 C7.72705192,5.17719743 7.84534077,5.24422876 8.03460701,5.27577567 C8.07403678,5.2836663 8.18641539,5.29943585 8.37174412,5.32308432 C8.55707285,5.34673278 8.78182233,5.3782797 9.0459949,5.41772505 C9.31016747,5.45717041 9.59603851,5.49856894 9.90360918,5.54192051 C10.2111799,5.58527209 10.4970474,5.62864721 10.7612117,5.67204566 C11.0253761,5.71544411 11.2501303,5.75093251 11.4354742,5.77851063 C11.6208182,5.80608875 11.7292519,5.81988958 11.7607754,5.81991302 C11.8554083,5.83568648 11.8968068,5.87117089 11.8849709,5.92636627 C11.8731349,5.98156165 11.8317364,6.01310856 11.7607754,6.02100701 C11.7371114,6.02889764 11.6267045,6.04663981 11.4295563,6.07423363 C11.232408,6.10182745 10.9938526,6.13928835 10.7138914,6.18661657 C10.4339301,6.23394479 10.1322891,6.28322993 9.80896845,6.33447221 C9.48564776,6.3857145 9.18203451,6.43303088 8.89812754,6.4764216 C8.61422057,6.51981231 8.37764217,6.55727322 8.18839234,6.58880454 C7.99914251,6.62033587 7.90056427,6.63610534 7.89265762,6.63611319 C7.85322785,6.64400382 7.81576695,6.65386325 7.78027468,6.66569135 C7.74478241,6.67751945 7.7152121,6.70314839 7.69156364,6.74257816 L7.62059481,6.88452754 C7.58904789,6.94761351 7.56144634,6.98704329 7.53779002,7.00281674 C7.52201657,7.02647306 7.50821573,7.052102 7.49638763,7.07970355 C7.48455953,7.10730511 7.49836028,7.14871148 7.53779002,7.20392245 C7.56144634,7.23546151 7.59890724,7.28474676 7.65017296,7.35177809 C7.70143869,7.41880941 7.75861055,7.49569622 7.82168879,7.58243851 C7.88476703,7.6691808 7.94588425,7.74804456 8.00504056,7.81902863 C8.06419688,7.89001305 8.1016579,7.93732955 8.11742351,7.96097801 C8.15684543,8.02406399 8.16275555,8.0595484 8.135154,8.06743126 C8.10755244,8.07531409 8.07009142,8.05954453 8.02277105,8.02012261 C7.99123199,8.00434131 7.93800537,7.97082564 7.86309118,7.91957562 C7.78817699,7.8683256 7.70931405,7.81114975 7.62650106,7.74804808 C7.54368843,7.6849464 7.464829,7.62777489 7.38992266,7.57653225 C7.31501632,7.52528997 7.2657272,7.4917743 7.2420553,7.47598526 C7.17896933,7.40500858 7.12376962,7.39317661 7.07645745,7.44048913 C7.0527934,7.46415318 7.02322298,7.48189937 6.98774641,7.49372747 C6.95226985,7.50555557 6.91875418,7.52329778 6.88719942,7.54695409 C6.86352752,7.56272755 6.83789471,7.58638773 6.81030089,7.61793465 C6.78270707,7.64948156 6.76101963,7.70073943 6.74523832,7.77170826 C6.74523832,7.78748172 6.73143748,7.89591544 6.70383593,8.09700942 C6.67623437,8.29810341 6.64271871,8.54257205 6.60328893,8.83041653 C6.56385916,9.118261 6.51654278,9.4277887 6.46133955,9.75899964 C6.40613632,10.0902106 6.35881994,10.4036805 6.31939017,10.699407 C6.27996039,10.9951335 6.24249949,11.2474854 6.20700722,11.4564625 C6.17151495,11.6654397 6.15377275,11.7896469 6.1537806,11.8290841 C6.13801499,11.9631467 6.11041332,12.0183503 6.07097581,11.9946936 C6.03153831,11.9710373 6.00394062,11.9079514 5.98818275,11.8054356 C5.98029212,11.7659981 5.96254596,11.64376 5.93494441,11.4387203 C5.90734285,11.2336807 5.86988183,10.9813288 5.82256146,10.6816648 C5.7752411,10.3820008 5.72201447,10.0665586 5.66288159,9.73533945 C5.60374871,9.40412032 5.55051822,9.09262035 5.50319,8.80083837 C5.45586178,8.50905639 5.41642814,8.26458774 5.38488908,8.06743126 C5.35335002,7.87027478 5.33758043,7.75987231 5.33758043,7.73622385 C5.3296898,7.62581751 5.29420143,7.55484082 5.23111546,7.52329391 C5.15225603,7.49175485 5.09311179,7.46021181 5.05368166,7.42866489 C5.01425189,7.41289144 4.96890813,7.40697733 4.91765025,7.41092269 C4.86639238,7.41486801 4.83287672,7.42472352 4.81710326,7.44048913 C4.80921263,7.44837976 4.76583754,7.48189539 4.68697811,7.54103612 C4.60811868,7.60017685 4.5233455,7.66129407 4.4326575,7.72438789 C4.34196986,7.78748172 4.25719245,7.85057203 4.17832517,7.91365765 C4.0994579,7.97674362 4.04820002,8.01223202 4.02455156,8.02012261 C4.00089524,8.04377893 3.96540696,8.0595484 3.91808659,8.06743126 C3.87076622,8.07531409 3.87076622,8.04771245 3.91808659,7.98462648 C3.94174291,7.95308742 3.98708667,7.89197407 4.054118,7.80128642 C4.12114933,7.71059878 4.19015292,7.61596589 4.26112996,7.51738765 C4.33210664,7.41880941 4.39716488,7.3281179 4.45630597,7.24531312 C4.5154467,7.16250833 4.55685296,7.10927819 4.58052486,7.08562153 C4.61206392,7.04619175 4.6100913,6.99887537 4.57460689,6.94367214 C4.53912247,6.88846891 4.50560681,6.8332658 4.47405989,6.77806257 C4.44251298,6.72285935 4.39913797,6.69131642 4.34393474,6.68343356 C4.28873151,6.67555073 4.2335284,6.6637226 4.17832517,6.64794914 C4.16255172,6.64005851 4.06200473,6.62231235 3.8766842,6.5947108 C3.69136367,6.56710924 3.46464075,6.53162483 3.19651544,6.48825755 C2.92839013,6.44489027 2.64055034,6.39757389 2.3329949,6.34630817 C2.02543947,6.29504244 1.73365397,6.24969481 1.45763841,6.21026504 C1.18162286,6.17083527 0.943067504,6.13337436 0.74197352,6.0978821 C0.540879536,6.06238983 0.420618068,6.04071012 0.381187944,6.03284296 C0.255015531,6.01706165 0.174184187,5.9815695 0.138691568,5.92636627 C0.1031993,5.87116304 0.184031464,5.83173339 0.381187944,5.80807707 C0.452164628,5.80018644 0.596086631,5.77849891 0.812954071,5.7430145 C1.02982151,5.70753008 1.27823235,5.67007304 1.55818541,5.63064327 C1.83813847,5.5912135 2.13583491,5.54784235 2.45127238,5.50052984 C2.76670986,5.45321732 3.0565266,5.40984219 3.32072261,5.37040469 C3.58491862,5.33096718 3.80572708,5.29745152 3.98314917,5.26985769 C4.16057125,5.24226387 4.25323151,5.22846315 4.26112996,5.2284553 C4.30055973,5.22056467 4.33407539,5.2146506 4.36167695,5.21071309 C4.38927851,5.20677559 4.41490744,5.18902951 4.43856376,5.15747475 C4.45434507,5.11804498 4.47209114,5.08256056 4.4918021,5.0510215 C4.51151306,5.01948244 4.52925527,4.98793553 4.54502873,4.95638077 C4.59234909,4.8932948 4.59234909,4.83809508 4.54502873,4.79078292 L4.54502873,4.79078292 Z" id="路径"></path>
                        </g>
                        <path d="M16.5,21.5 C13.7333733,23.3203938 11.7685394,24.9284154 10.6054982,26.3240648 C9.44245701,27.7197142 8.07395761,30.1116926 6.5,33.5" id="直线" stroke="#FF9BB3" stroke-width="4" stroke-linecap="round" stroke-linejoin="round"></path>
                        <circle id="椭圆形" fill="#FF9BB3" cx="19.5" cy="5.5" r="2.5"></circle>
                        <path d="M31,27 C37.627417,27 43,32.372583 43,39 C43,45.627417 37.627417,51 31,51 C24.372583,51 19,45.627417 19,39 C19,32.372583 24.372583,27 31,27 Z M31,33.3431458 L25.3431458,39 L31,44.6568542 L36.6568542,39 L31,33.3431458 Z" id="形状结合" fill="url(#linearGradient-2)"></path>
                    </g>
                </g>
            </g>
        </g>
    </g>
</svg>