<?xml version="1.0" encoding="UTF-8"?>
<svg width="82px" height="71px" viewBox="0 0 82 71" version="1.1" xmlns="http://www.w3.org/2000/svg" xmlns:xlink="http://www.w3.org/1999/xlink">
    <title>编组 7</title>
    <defs>
        <linearGradient x1="25.390899%" y1="53.0149408%" x2="72.2629818%" y2="43.5885338%" id="linearGradient-1">
            <stop stop-color="#DB57F5" offset="0%"></stop>
            <stop stop-color="#A761E3" offset="100%"></stop>
        </linearGradient>
        <linearGradient x1="0%" y1="56.9895681%" x2="100%" y2="45.5867873%" id="linearGradient-2">
            <stop stop-color="#DB59F5" offset="0%"></stop>
            <stop stop-color="#A468D9" offset="100%"></stop>
        </linearGradient>
    </defs>
    <g id="缴费通" stroke="none" stroke-width="1" fill="none" fill-rule="evenodd">
        <g id="首页" transform="translate(-563.000000, -1001.000000)">
            <g id="学校缴费" transform="translate(75.000000, 966.000000)">
                <g id="编组-7" transform="translate(488.000000, 35.000000)">
                    <path d="M56.9593081,38.0744591 C60.6073937,36.6914864 63.3959166,36 65.3248769,36 C67.2538371,36 70.1319809,36.6914864 73.9593081,38.0744591 C71.4703563,43.8574075 70.2258804,48.4332379 70.2258804,51.8019502 C70.2258804,55.1706624 71.4703563,59.6900698 73.9593081,65.3601723 C69.613407,67.3931196 66.4393383,68.4095932 64.4371021,68.4095932 C62.4348658,68.4095932 59.9422678,67.3931196 56.9593081,65.3601723 C59.2855682,58.8360869 60.4486983,54.0176414 60.4486983,50.9048357 C60.4486983,47.7920301 59.2855682,43.5152379 56.9593081,38.0744591 Z" id="矩形" fill-opacity="0.747404939" fill="#D7ADFC" transform="translate(65.459308, 52.204797) rotate(37.000000) translate(-65.459308, -52.204797) "></path>
                    <g id="编组-3">
                        <path d="M78.0825195,13.7781947 L44.219043,0.757882152 C41.5909571,-0.252627384 38.6815038,-0.252627384 36.053418,0.757882152 L2.18994141,13.7781947 C-0.729980469,14.9004603 -0.729980469,19.0277064 2.18994141,20.1487025 L36.053418,33.169015 C38.6815038,34.1795245 41.5909571,34.1795245 44.219043,33.169015 L70.8487305,22.9302454 L75.7783203,21.0348353 L78.0825195,20.1461634 C81.0024414,19.0251673 81.0024414,14.8979212 78.0825195,13.7756556 L78.0825195,13.7781947 Z" id="路径" fill-opacity="0.9" fill="url(#linearGradient-1)" fill-rule="nonzero"></path>
                        <rect id="矩形" fill-opacity="0.6" fill="#B852F6" x="72.049707" y="17.2173548" width="4.55" height="16.9" rx="2.275"></rect>
                        <path d="M45.0095497,37.2235973 C42.1146621,38.3257018 38.9098427,38.3257018 36.0149551,37.2235973 L20.275813,31.231029 L14.199707,28.9173548 L14.199707,49.7279607 C14.199707,51.2680055 15.1574581,52.6490527 16.6091732,53.2019334 L36.0149551,60.5901831 C38.9096943,61.6930787 42.1148105,61.6930787 45.0095497,60.5901831 L63.7902408,53.4387007 C65.2417368,52.8863252 66.199707,51.5057737 66.199707,49.9661126 L66.199707,29.158276 L60.745895,31.2351828 L45.0095497,37.2235973 Z" id="路径" fill-opacity="0.9" fill="url(#linearGradient-2)" fill-rule="nonzero"></path>
                    </g>
                </g>
            </g>
        </g>
    </g>
</svg>